Input #0, mov,mp4,m4a,3gp,3g2,mj2, from '/home/hbattu/projects/huberman-gpt/huberman-audio/mp3/tmp5s8a7fzu.mp4':
  Metadata:
    major_brand     : dash
    minor_version   : 0
    compatible_brands: iso6mp41
    creation_time   : 2023-05-06T01:53:41.000000Z
  Duration: 03:13:15.91, start: 0.000000, bitrate: 129 kb/s
    Stream #0:0(eng): Audio: aac (LC) (mp4a / 0x6134706D), 44100 Hz, stereo, fltp, 0 kb/s (default)
    Metadata:
      creation_time   : 2023-05-06T01:53:41.000000Z
      handler_name    : ISO Media file produced by Google Inc.
Stream mapping:
  Stream #0:0 -> #0:0 (aac (native) -> mp3 (libmp3lame))
Press [q] to stop, [?] for help
[graph_0_in_0_0 @ 0x562e95a15c40] tb:1/44100 samplefmt:fltp samplerate:44100 chlayout:0x3
Output #0, mp3, to '../huberman-audio/mp3/cS7cNaBrkxo.mp3':
  Metadata:
    major_brand     : dash
    minor_version   : 0
    compatible_brands: iso6mp41
    TSSE            : Lavf58.29.100
    Stream #0:0(eng): Audio: mp3 (libmp3lame), 44100 Hz, stereo, fltp, delay 1105 (default)
    Metadata:
      creation_time   : 2023-05-06T01:53:41.000000Z
      handler_name    : ISO Media file produced by Google Inc.
      encoder         : Lavc58.54.100 libmp3lame
No more output streams to write to, finishing.
size=  181187kB time=03:13:15.91 bitrate= 128.0kbits/s speed=96.2x    
[AVIOContext @ 0x562e958fb900] Statistics: 0 seeks, 241 writeouts
video:0kB audio:181187kB subtitle:0kB other streams:0kB global headers:0kB muxing overhead: 0.000186%
Input file #0 (/home/hbattu/projects/huberman-gpt/huberman-audio/mp3/tmp5s8a7fzu.mp4):
  Input stream #0:0 (audio): 499394 packets read (185534530 bytes); 499394 frames decoded (511379456 samples); 
  Total: 499394 packets (185534530 bytes) demuxed
Output file #0 (../huberman-audio/mp3/cS7cNaBrkxo.mp3):
  Output stream #0:0 (audio): 443906 frames encoded (511379456 samples); 443907 packets muxed (185535007 bytes); 
  Total: 443907 packets (185535007 bytes) muxed
[AVIOContext @ 0x562e95930f80] Statistics: 2 seeks, 709 writeouts
[AVIOContext @ 0x562e95904880] Statistics: 187667562 bytes read, 0 seeks
